<svg width="115" height="32" viewBox="0 0 115 32" fill="none" xmlns="http://www.w3.org/2000/svg">
<path d="M5.778 9.492H10.602C11.628 9.492 12.132 10.158 12.132 10.788C12.132 11.436 11.61 12.03 10.602 12.03H1.674L0.774 15H10.638C13.986 15 15.588 12.876 15.588 10.788C15.588 8.646 13.896 6.54 10.638 6.54H5.814C4.806 6.54 4.284 5.928 4.284 5.28C4.284 4.65 4.788 4.002 5.814 4.002H14.382L15.282 1.032H5.778C2.466 1.032 0.774 3.138 0.774 5.28C0.774 7.386 2.412 9.492 5.778 9.492ZM20.7242 15.36L24.0542 14.46L27.4202 6.468L30.6962 15.36L34.0262 14.46L38.5442 1.032H35.0342L32.3702 11.13L28.4462 1.032H26.4122L22.4882 11.13L19.8242 1.032H16.3142L20.7242 15.36ZM42.4953 13.128H48.9753L49.8573 15H53.3673L46.4913 0.671999L43.1613 1.572L36.5193 15H40.0293L44.8893 4.488L47.6253 10.284H43.7193L42.4953 13.128ZM54.3832 6.054V15H57.7132V10.59H64.0672C67.5952 10.59 69.2512 8.286 69.2512 5.946C69.2512 3.516 67.4512 1.032 64.0672 1.032H55.2832L54.3832 4.002H64.2112C65.2372 4.002 65.7412 4.884 65.7412 5.784C65.7412 6.702 65.2192 7.62 64.2112 7.62H57.7132V5.154L54.3832 6.054ZM0.84 25.036V31H7.416C9.66 31 10.752 29.704 10.752 28.396C10.752 27.604 10.284 26.812 9.36 26.296C10.128 25.804 10.512 25.084 10.512 24.376C10.512 23.044 9.372 21.688 7.176 21.688H1.44L0.84 23.668H7.152C7.836 23.668 8.172 24.076 8.172 24.496C8.172 24.928 7.824 25.36 7.152 25.36H3.06V24.436L0.84 25.036ZM3.06 27.328H7.392C8.076 27.328 8.412 27.736 8.412 28.156C8.412 28.588 8.064 29.02 7.392 29.02H3.06V27.328ZM17.5196 27.832L22.0676 21.688H19.4876L16.4276 26.056L13.3676 21.688H10.7876L15.2996 27.784V31H17.5196V27.832ZM29.7153 27.328H32.9313C33.6153 27.328 33.9513 27.772 33.9513 28.192C33.9513 28.624 33.6033 29.02 32.9313 29.02H26.9793L26.3793 31H32.9553C35.1873 31 36.2553 29.584 36.2553 28.192C36.2553 26.764 35.1273 25.36 32.9553 25.36H29.7393C29.0673 25.36 28.7193 24.952 28.7193 24.52C28.7193 24.1 29.0553 23.668 29.7393 23.668H35.4513L36.0513 21.688H29.7153C27.5073 21.688 26.3793 23.092 26.3793 24.52C26.3793 25.924 27.4713 27.328 29.7153 27.328ZM40.4474 29.752H44.7674L45.3554 31H47.6954L43.1114 21.448L40.8914 22.048L36.4634 31H38.8034L42.0434 23.992L43.8674 27.856H41.2634L40.4474 29.752ZM50.5927 27.34H56.2447V25.36H50.5927V23.668H56.6647L57.2647 21.688H48.3727V31H50.5927V27.34ZM60.4364 27.34H66.2084V25.36H60.4364V23.668H66.6284L67.2284 21.688H58.2164V31H66.6284L67.2284 29.02H60.4364V27.34ZM77.9478 21.688L74.3958 28.036L70.7958 21.448L68.5758 22.048V31H70.7958V25.852L73.6278 30.7H75.1158L77.9478 25.648V31H80.1678V21.688H77.9478ZM83.6263 26.344C83.6263 24.28 84.6943 23.5 86.8423 23.5C88.9183 23.5 89.9983 24.34 89.9983 26.344C89.9983 28.348 88.9183 29.188 86.8423 29.188C84.6943 29.188 83.6263 28.408 83.6263 26.344ZM92.3383 26.344C92.3383 22.96 89.8063 21.484 86.7343 21.484C83.7583 21.484 81.2863 23.056 81.2863 26.344C81.2863 29.632 83.7583 31.204 86.7343 31.204C89.8063 31.204 92.3383 29.716 92.3383 26.344ZM95.1107 26.344C95.1107 24.28 96.1787 23.5 98.3267 23.5C100.403 23.5 101.483 24.34 101.483 26.344C101.483 28.348 100.403 29.188 98.3267 29.188C96.1787 29.188 95.1107 28.408 95.1107 26.344ZM103.823 26.344C103.823 22.96 101.291 21.484 98.2187 21.484C95.2427 21.484 92.7707 23.056 92.7707 26.344C92.7707 29.632 95.2427 31.204 98.2187 31.204C101.291 31.204 103.823 29.716 103.823 26.344ZM112.031 21.688V27.592L107.159 21.448L104.939 22.048V31H107.159V24.856L112.031 31H114.251V21.688H112.031Z" fill="url(#paint0_linear)"/>
<defs>
<linearGradient id="paint0_linear" x1="10" y1="4" x2="12.2342" y2="28.383" gradientUnits="userSpaceOnUse">
<stop stop-color="#00A79D"/>
<stop offset="1" stop-color="#ECF8F6"/>
</linearGradient>
</defs>
</svg>
