<svg id="svg" version="1.1" xmlns="http://www.w3.org/2000/svg" xmlns:xlink="http://www.w3.org/1999/xlink" width="400" height="47.96068796068796" viewBox="0, 0, 400,47.96068796068796"><g id="svgg"><path id="path0" d="M1.533 0.200 C 1.027 0.707,1.296 1.519,2.292 2.486 C 2.819 2.998,7.881 7.870,13.542 13.313 C 19.202 18.756,23.833 23.264,23.833 23.331 C 23.833 23.398,23.140 24.112,22.292 24.917 C 21.444 25.722,19.587 27.511,18.167 28.892 C 8.151 38.631,1.097 45.441,0.542 45.908 C 0.081 46.295,-0.000 46.473,-0.000 47.098 L 0.000 47.833 6.042 47.826 L 12.083 47.818 16.583 43.404 C 26.121 34.048,30.193 30.082,30.303 30.042 C 30.475 29.979,35.419 34.730,46.082 45.205 L 48.750 47.826 55.431 47.830 C 59.105 47.832,62.150 47.794,62.198 47.746 C 62.532 47.413,61.848 46.585,58.940 43.804 C 42.197 27.785,37.667 23.423,37.667 23.317 C 37.667 23.200,38.450 22.430,44.168 16.917 C 49.559 11.719,51.261 10.082,55.166 6.333 C 57.409 4.179,59.453 2.216,59.706 1.971 C 60.203 1.490,60.339 0.572,59.967 0.200 C 59.819 0.052,58.268 -0.000,54.023 0.000 L 48.280 0.000 45.350 2.875 C 43.738 4.456,40.002 8.145,37.047 11.071 C 31.939 16.130,31.382 16.658,31.152 16.664 C 30.996 16.668,30.382 16.081,21.583 7.499 C 19.933 5.890,17.525 3.544,16.231 2.287 L 13.879 0.000 7.806 0.000 C 3.305 0.000,1.682 0.052,1.533 0.200 " stroke="none" fill="#24bcb4" fill-rule="evenodd"></path><path id="path1" d="M64.093 0.370 C 63.763 0.841,63.704 8.609,64.025 9.219 C 64.346 9.830,64.326 9.828,73.124 9.831 L 81.665 9.833 81.708 28.792 L 81.750 47.750 86.792 47.794 L 91.833 47.838 91.833 28.836 L 91.833 9.833 100.474 9.833 C 109.047 9.833,109.118 9.831,109.433 9.483 C 109.848 9.023,109.928 0.765,109.521 0.276 C 109.311 0.022,107.521 0.000,86.822 0.000 L 64.352 0.000 64.093 0.370 M113.506 0.322 C 113.389 0.540,113.333 8.294,113.333 24.242 L 113.333 47.838 118.292 47.794 L 123.250 47.750 123.292 28.784 L 123.335 9.819 136.709 9.877 C 151.358 9.940,151.038 9.919,152.808 10.946 C 157.841 13.866,157.238 23.744,151.902 25.804 C 150.326 26.412,149.104 26.488,140.667 26.504 C 131.082 26.522,131.920 26.342,130.622 28.667 C 127.404 34.432,127.393 34.458,127.971 35.173 L 128.304 35.583 137.047 35.667 L 145.791 35.750 146.601 36.667 C 147.046 37.171,147.904 38.108,148.506 38.750 C 149.530 39.840,154.002 44.725,155.946 46.878 L 156.809 47.833 169.113 47.829 L 181.417 47.824 183.151 44.870 C 185.000 41.721,189.695 33.784,196.090 23.000 C 196.932 21.579,198.513 18.900,199.602 17.047 C 200.692 15.194,201.621 13.679,201.667 13.679 C 201.713 13.680,202.350 14.704,203.083 15.954 C 203.817 17.204,205.272 19.657,206.318 21.405 C 208.794 25.544,210.333 28.169,210.333 28.254 C 210.333 28.291,207.410 28.343,203.837 28.369 L 197.341 28.417 196.940 28.833 C 196.063 29.745,193.167 34.980,193.167 35.653 C 193.167 36.804,192.551 36.741,204.640 36.833 L 215.563 36.917 217.203 39.667 C 218.105 41.179,219.567 43.635,220.453 45.125 L 222.063 47.833 227.948 47.833 L 233.833 47.833 233.833 47.449 C 233.833 47.025,232.944 45.523,221.334 26.333 C 219.476 23.262,217.715 20.337,217.421 19.833 C 217.127 19.329,215.365 16.404,213.506 13.333 C 211.646 10.262,209.563 6.813,208.877 5.667 C 206.804 2.205,206.303 1.448,205.602 0.708 L 204.931 0.000 201.995 0.000 L 199.060 0.000 198.314 0.715 C 197.880 1.130,196.901 2.542,195.974 4.090 C 195.097 5.553,190.384 13.387,185.500 21.500 C 180.616 29.613,175.271 38.500,173.622 41.250 C 171.972 44.000,170.522 46.358,170.399 46.490 C 170.207 46.695,169.248 45.790,163.778 40.240 L 157.381 33.750 158.010 33.393 C 163.867 30.065,166.349 25.024,166.118 16.922 C 165.867 8.125,161.555 2.319,153.917 0.494 L 151.851 0.000 132.765 0.000 C 114.065 0.000,113.675 0.007,113.506 0.322 M237.484 0.269 C 237.286 0.508,237.250 4.144,237.250 24.151 L 237.250 47.750 254.750 47.797 L 272.250 47.843 274.109 47.159 C 283.518 43.697,289.333 34.744,289.333 23.721 C 289.333 12.185,283.010 3.687,272.083 0.537 L 270.583 0.105 254.150 0.046 C 238.882 -0.008,237.701 0.008,237.484 0.269 M294.464 0.375 C 294.238 0.771,294.035 45.598,294.253 47.125 L 294.354 47.833 316.257 47.833 L 338.160 47.833 338.256 47.454 C 338.575 46.183,338.249 39.136,337.857 38.818 C 337.475 38.510,336.955 38.500,320.898 38.500 L 304.333 38.500 304.333 24.250 L 304.333 10.000 320.479 10.000 C 337.747 10.000,337.545 10.007,337.970 9.360 C 338.270 8.902,338.484 2.751,338.253 1.210 C 338.054 -0.114,340.128 0.000,316.161 0.000 L 294.678 0.000 294.464 0.375 M343.645 0.276 C 343.454 0.506,343.417 4.393,343.417 24.151 L 343.417 47.750 348.417 47.750 L 353.417 47.750 353.459 28.792 L 353.501 9.833 366.126 9.837 C 380.963 9.841,381.686 9.904,383.543 11.363 C 387.804 14.712,387.214 23.197,382.557 25.554 C 380.923 26.381,380.926 26.381,371.296 26.485 C 362.465 26.580,362.165 26.594,361.846 26.917 C 361.435 27.333,358.060 33.451,357.909 34.056 C 357.506 35.659,357.550 35.667,367.429 35.667 L 375.809 35.667 379.530 39.716 C 381.576 41.943,384.075 44.676,385.083 45.790 L 386.917 47.814 393.458 47.824 L 400.000 47.833 399.993 47.125 C 399.987 46.419,399.966 46.395,393.744 40.103 L 387.502 33.789 388.834 32.970 C 394.147 29.700,396.528 24.571,396.282 16.921 C 396.001 8.150,391.719 2.392,384.066 0.494 L 382.083 0.003 362.979 0.001 C 345.411 0.000,343.856 0.022,343.645 0.276 M58.575 3.042 L 57.917 3.750 58.625 3.091 C 59.015 2.729,59.333 2.410,59.333 2.383 C 59.333 2.257,59.188 2.383,58.575 3.042 M43.410 4.708 L 42.583 5.583 43.458 4.756 C 44.271 3.988,44.410 3.833,44.285 3.833 C 44.259 3.833,43.865 4.227,43.410 4.708 M54.075 7.375 L 53.417 8.083 54.125 7.425 C 54.515 7.062,54.833 6.743,54.833 6.716 C 54.833 6.590,54.688 6.716,54.075 7.375 M7.500 7.583 C 7.811 7.904,8.103 8.167,8.149 8.167 C 8.195 8.167,7.978 7.904,7.667 7.583 C 7.356 7.263,7.064 7.000,7.018 7.000 C 6.972 7.000,7.189 7.263,7.500 7.583 M23.667 9.583 C 24.257 10.179,24.778 10.667,24.824 10.667 C 24.870 10.667,24.424 10.179,23.833 9.583 C 23.243 8.987,22.722 8.500,22.676 8.500 C 22.630 8.500,23.076 8.987,23.667 9.583 M268.583 10.252 C 280.364 12.480,283.131 29.726,272.786 36.455 C 269.658 38.489,269.577 38.500,257.406 38.500 L 247.333 38.500 247.333 24.250 L 247.333 10.000 257.292 10.000 C 265.483 10.000,267.487 10.045,268.583 10.252 M11.667 11.552 C 11.667 11.581,11.910 11.825,12.208 12.094 L 12.750 12.583 12.260 12.042 C 11.804 11.537,11.667 11.423,11.667 11.552 M28.917 14.667 C 29.275 15.033,29.605 15.333,29.651 15.333 C 29.697 15.333,29.441 15.033,29.083 14.667 C 28.725 14.300,28.395 14.000,28.349 14.000 C 28.303 14.000,28.559 14.300,28.917 14.667 M45.906 15.208 L 45.417 15.750 45.958 15.260 C 46.463 14.804,46.577 14.667,46.448 14.667 C 46.419 14.667,46.175 14.910,45.906 15.208 M32.244 15.708 L 31.417 16.583 32.292 15.756 C 33.105 14.988,33.243 14.833,33.119 14.833 C 33.092 14.833,32.699 15.227,32.244 15.708 M16.000 15.719 C 16.000 15.748,16.244 15.991,16.542 16.260 L 17.083 16.750 16.594 16.208 C 16.138 15.703,16.000 15.590,16.000 15.719 M41.240 19.708 L 40.750 20.250 41.292 19.760 C 41.797 19.304,41.910 19.167,41.781 19.167 C 41.752 19.167,41.509 19.410,41.240 19.708 M312.693 19.792 C 312.059 20.330,308.790 26.185,308.706 26.933 C 308.558 28.245,307.682 28.167,322.519 28.167 C 335.175 28.167,335.643 28.156,336.023 27.848 C 336.685 27.313,336.721 20.411,336.065 19.755 C 335.647 19.337,313.188 19.372,312.693 19.792 M21.160 20.708 C 21.850 21.444,22.000 21.577,22.000 21.451 C 22.000 21.425,21.644 21.068,21.208 20.660 L 20.417 19.917 21.160 20.708 M39.167 24.885 C 39.167 24.914,39.410 25.158,39.708 25.427 L 40.250 25.917 39.760 25.375 C 39.304 24.870,39.167 24.757,39.167 24.885 M43.167 28.719 C 43.167 28.748,43.410 28.991,43.708 29.260 L 44.250 29.750 43.760 29.208 C 43.304 28.703,43.167 28.590,43.167 28.719 M16.658 30.292 L 16.083 30.917 16.708 30.342 C 17.052 30.026,17.333 29.745,17.333 29.717 C 17.333 29.590,17.192 29.710,16.658 30.292 M32.417 32.000 C 32.775 32.367,33.105 32.667,33.151 32.667 C 33.197 32.667,32.941 32.367,32.583 32.000 C 32.225 31.633,31.895 31.333,31.849 31.333 C 31.803 31.333,32.059 31.633,32.417 32.000 M24.994 35.125 L 24.083 36.083 25.042 35.172 C 25.932 34.326,26.076 34.167,25.953 34.167 C 25.927 34.167,25.495 34.598,24.994 35.125 M51.500 36.750 C 51.811 37.071,52.103 37.333,52.149 37.333 C 52.195 37.333,51.978 37.071,51.667 36.750 C 51.356 36.429,51.064 36.167,51.018 36.167 C 50.972 36.167,51.189 36.429,51.500 36.750 M38.083 37.500 C 38.441 37.867,38.772 38.167,38.818 38.167 C 38.863 38.167,38.608 37.867,38.250 37.500 C 37.892 37.133,37.562 36.833,37.516 36.833 C 37.470 36.833,37.725 37.133,38.083 37.500 M55.083 40.167 C 55.441 40.533,55.772 40.833,55.818 40.833 C 55.863 40.833,55.608 40.533,55.250 40.167 C 54.892 39.800,54.562 39.500,54.516 39.500 C 54.470 39.500,54.725 39.800,55.083 40.167 M44.750 44.000 C 45.201 44.458,45.608 44.833,45.654 44.833 C 45.700 44.833,45.368 44.458,44.917 44.000 C 44.465 43.542,44.058 43.167,44.013 43.167 C 43.967 43.167,44.299 43.542,44.750 44.000 M15.333 44.583 C 14.650 45.271,14.129 45.833,14.175 45.833 C 14.221 45.833,14.817 45.271,15.500 44.583 C 16.183 43.896,16.704 43.333,16.658 43.333 C 16.612 43.333,16.016 43.896,15.333 44.583 " stroke="none" fill="#040404" fill-rule="evenodd"></path></g></svg>