<svg id="svg" version="1.1" xmlns="http://www.w3.org/2000/svg" xmlns:xlink="http://www.w3.org/1999/xlink" width="400" height="47.96068796068796" viewBox="0, 0, 400,47.96068796068796"><g id="svgg"><path id="path0" d="M64.093 0.370 C 63.763 0.841,63.704 8.609,64.025 9.219 C 64.346 9.830,64.326 9.828,73.124 9.831 L 81.665 9.833 81.708 28.792 L 81.750 47.750 86.792 47.794 L 91.833 47.838 91.833 28.836 L 91.833 9.833 100.474 9.833 C 109.047 9.833,109.118 9.831,109.433 9.483 C 109.848 9.023,109.928 0.765,109.521 0.276 C 109.311 0.022,107.521 0.000,86.822 0.000 L 64.352 0.000 64.093 0.370 M113.506 0.322 C 113.389 0.540,113.333 8.294,113.333 24.242 L 113.333 47.838 118.292 47.794 L 123.250 47.750 123.292 28.784 L 123.335 9.819 136.709 9.877 C 151.358 9.940,151.038 9.919,152.808 10.946 C 157.841 13.866,157.238 23.744,151.902 25.804 C 150.326 26.412,149.104 26.488,140.667 26.504 C 131.082 26.522,131.920 26.342,130.622 28.667 C 127.404 34.432,127.393 34.458,127.971 35.173 L 128.304 35.583 137.047 35.667 L 145.791 35.750 146.601 36.667 C 147.046 37.171,147.904 38.108,148.506 38.750 C 149.530 39.840,154.002 44.725,155.946 46.878 L 156.809 47.833 169.113 47.829 L 181.417 47.824 183.151 44.870 C 185.000 41.721,189.695 33.784,196.090 23.000 C 196.932 21.579,198.513 18.900,199.602 17.047 C 200.692 15.194,201.621 13.679,201.667 13.679 C 201.713 13.680,202.350 14.704,203.083 15.954 C 203.817 17.204,205.272 19.657,206.318 21.405 C 208.794 25.544,210.333 28.169,210.333 28.254 C 210.333 28.291,207.410 28.343,203.837 28.369 L 197.341 28.417 196.940 28.833 C 196.063 29.745,193.167 34.980,193.167 35.653 C 193.167 36.804,192.551 36.741,204.640 36.833 L 215.563 36.917 217.203 39.667 C 218.105 41.179,219.567 43.635,220.453 45.125 L 222.063 47.833 227.948 47.833 L 233.833 47.833 233.833 47.449 C 233.833 47.025,232.944 45.523,221.334 26.333 C 219.476 23.262,217.715 20.337,217.421 19.833 C 217.127 19.329,215.365 16.404,213.506 13.333 C 211.646 10.262,209.563 6.813,208.877 5.667 C 206.804 2.205,206.303 1.448,205.602 0.708 L 204.931 0.000 201.995 0.000 L 199.060 0.000 198.314 0.715 C 197.880 1.130,196.901 2.542,195.974 4.090 C 195.097 5.553,190.384 13.387,185.500 21.500 C 180.616 29.613,175.271 38.500,173.622 41.250 C 171.972 44.000,170.522 46.358,170.399 46.490 C 170.207 46.695,169.248 45.790,163.778 40.240 L 157.381 33.750 158.010 33.393 C 163.867 30.065,166.349 25.024,166.118 16.922 C 165.867 8.125,161.555 2.319,153.917 0.494 L 151.851 0.000 132.765 0.000 C 114.065 0.000,113.675 0.007,113.506 0.322 M237.484 0.269 C 237.286 0.508,237.250 4.144,237.250 24.151 L 237.250 47.750 254.750 47.797 L 272.250 47.843 274.109 47.159 C 283.518 43.697,289.333 34.744,289.333 23.721 C 289.333 12.185,283.010 3.687,272.083 0.537 L 270.583 0.105 254.150 0.046 C 238.882 -0.008,237.701 0.008,237.484 0.269 M294.464 0.375 C 294.238 0.771,294.035 45.598,294.253 47.125 L 294.354 47.833 316.257 47.833 L 338.160 47.833 338.256 47.454 C 338.575 46.183,338.249 39.136,337.857 38.818 C 337.475 38.510,336.955 38.500,320.898 38.500 L 304.333 38.500 304.333 24.250 L 304.333 10.000 320.479 10.000 C 337.747 10.000,337.545 10.007,337.970 9.360 C 338.270 8.902,338.484 2.751,338.253 1.210 C 338.054 -0.114,340.128 0.000,316.161 0.000 L 294.678 0.000 294.464 0.375 M343.645 0.276 C 343.454 0.506,343.417 4.393,343.417 24.151 L 343.417 47.750 348.417 47.750 L 353.417 47.750 353.459 28.792 L 353.501 9.833 366.126 9.837 C 380.963 9.841,381.686 9.904,383.543 11.363 C 387.804 14.712,387.214 23.197,382.557 25.554 C 380.923 26.381,380.926 26.381,371.296 26.485 C 362.465 26.580,362.165 26.594,361.846 26.917 C 361.435 27.333,358.060 33.451,357.909 34.056 C 357.506 35.659,357.550 35.667,367.429 35.667 L 375.809 35.667 379.530 39.716 C 381.576 41.943,384.075 44.676,385.083 45.790 L 386.917 47.814 393.458 47.824 L 400.000 47.833 399.993 47.125 C 399.987 46.419,399.966 46.395,393.744 40.103 L 387.502 33.789 388.834 32.970 C 394.147 29.700,396.528 24.571,396.282 16.921 C 396.001 8.150,391.719 2.392,384.066 0.494 L 382.083 0.003 362.979 0.001 C 345.411 0.000,343.856 0.022,343.645 0.276 M268.583 10.252 C 280.364 12.480,283.131 29.726,272.786 36.455 C 269.658 38.489,269.577 38.500,257.406 38.500 L 247.333 38.500 247.333 24.250 L 247.333 10.000 257.292 10.000 C 265.483 10.000,267.487 10.045,268.583 10.252 M312.693 19.792 C 312.059 20.330,308.790 26.185,308.706 26.933 C 308.558 28.245,307.682 28.167,322.519 28.167 C 335.175 28.167,335.643 28.156,336.023 27.848 C 336.685 27.313,336.721 20.411,336.065 19.755 C 335.647 19.337,313.188 19.372,312.693 19.792 " stroke="none" fill="#fcfcfc" fill-rule="evenodd"></path><path id="path1" d="M1.410 0.178 C 1.349 0.275,1.300 0.629,1.300 0.963 C 1.300 1.643,0.578 0.887,8.503 8.500 C 10.746 10.654,14.569 14.337,16.999 16.684 C 19.429 19.032,21.979 21.486,22.667 22.137 L 23.917 23.323 22.917 24.281 C 22.367 24.808,19.626 27.454,16.827 30.161 C 7.457 39.224,2.593 43.919,1.292 45.161 C 0.070 46.326,-0.000 46.432,-0.000 47.113 L 0.000 47.833 6.063 47.833 L 12.126 47.833 21.162 38.958 C 26.132 34.077,30.257 30.083,30.329 30.083 C 30.483 30.083,32.422 31.932,40.000 39.308 C 43.071 42.297,46.301 45.438,47.179 46.290 L 48.774 47.837 55.512 47.794 L 62.250 47.750 62.203 47.333 C 62.154 46.896,61.343 46.073,54.417 39.439 C 52.400 37.507,49.100 34.345,47.083 32.412 C 45.067 30.480,42.142 27.679,40.583 26.190 C 39.025 24.700,37.730 23.424,37.705 23.355 C 37.663 23.238,40.072 20.885,49.500 11.832 C 61.291 0.511,60.398 1.460,60.168 0.500 L 60.068 0.083 54.129 0.040 L 48.189 -0.004 40.803 7.294 C 36.740 11.308,32.910 15.071,32.290 15.658 L 31.163 16.723 29.706 15.317 C 28.905 14.544,25.962 11.691,23.167 8.978 C 20.371 6.265,17.146 3.138,16.000 2.029 L 13.917 0.012 7.718 0.006 C 3.502 0.002,1.485 0.057,1.410 0.178 " stroke="none" fill="#24bcb4" fill-rule="evenodd"></path></g></svg>